STARTFONT 2.1
COMMENT This font is still under development.
COMMENT You can use, copy, modify, distribute this file for free.
COMMENT 
COMMENT 94.09.14 created by Takahashi N. <ntakahas@etl.go.jp>
COMMENT  - Upper half contains IPA for English, French, German, and Italian.
FONT -ETL-Fixed-Medium-R-Normal--24-240-72-72-C-120-MuleIPA-1
SIZE 24 72 72
FONTBOUNDINGBOX 12 24 0 -2
STARTPROPERTIES 19
FONTNAME_REGISTRY ""
FOUNDRY "ETL"
FAMILY_NAME "Fixed"
WEIGHT_NAME "Medium"
SLANT "R"
SETWIDTH_NAME "Normal"
ADD_STYLE_NAME ""
PIXEL_SIZE 24
POINT_SIZE 240
RESOLUTION_X 72
RESOLUTION_Y 72
SPACING "C"
AVERAGE_WIDTH 120
CHARSET_REGISTRY "MuleIPA"
CHARSET_ENCODING "1"
DEFAULT_CHAR 255
FONT_DESCENT 2
FONT_ASCENT 22
_MULE_BASELINE_OFFSET -3
ENDPROPERTIES
CHARS 96
STARTCHAR unrounded front close
ENCODING 160
SWIDTH 500 0
DWIDTH 12 0
BBX 12 24 0 -2
BITMAP
0000
0000
0000
0000
0000
0600
0600
0000
0000
0600
0600
0600
0600
0600
0600
0600
0600
0600
0600
0000
0000
0000
0000
0000
ENDCHAR
STARTCHAR unrounded front/central close/close-mid
ENCODING 161
SWIDTH 500 0
DWIDTH 12 0
BBX 12 24 0 -2
BITMAP
0000
0000
0000
0000
0000
0000
0000
0000
0000
1f80
1f80
0600
0600
0600
0600
0600
0600
1f80
1f80
0000
0000
0000
0000
0000
ENDCHAR
STARTCHAR unrounded front close-mid
ENCODING 162
SWIDTH 500 0
DWIDTH 12 0
BBX 12 24 0 -2
BITMAP
0000
0000
0000
0000
0000
0000
0000
0000
0000
0f80
1fc0
3860
3060
3fe0
3fe0
3000
3060
1fe0
0fc0
0000
0000
0000
0000
0000
ENDCHAR
STARTCHAR unrounded front open-mid
ENCODING 163
SWIDTH 500 0
DWIDTH 12 0
BBX 12 24 0 -2
BITMAP
0000
0000
0000
0000
0000
0000
0000
0000
0000
0f80
1fc0
3060
3000
1f00
1f00
3000
3060
1fc0
0f80
0000
0000
0000
0000
0000
ENDCHAR
STARTCHAR unrounded front open-mid/open
ENCODING 164
SWIDTH 500 0
DWIDTH 12 0
BBX 12 24 0 -2
BITMAP
0000
0000
0000
0000
0000
0000
0000
0000
0000
39c0
7fe0
4660
0660
1fe0
3fc0
6600
6660
7fe0
3fc0
0000
0000
0000
0000
0000
ENDCHAR
STARTCHAR unrounded front open
ENCODING 165
SWIDTH 500 0
DWIDTH 12 0
BBX 12 24 0 -2
BITMAP
0000
0000
0000
0000
0000
0000
0000
0000
0000
0f80
1fc0
3060
0060
0fe0
1fe0
3060
30e0
3fe0
1f60
0000
0000
0000
0000
0000
ENDCHAR
STARTCHAR unrounded central close
ENCODING 166
SWIDTH 500 0
DWIDTH 12 0
BBX 12 24 0 -2
BITMAP
0000
0000
0000
0000
0000
0600
0600
0000
0000
0600
0600
0600
0600
1f80
1f80
0600
0600
0600
0600
0000
0000
0000
0000
0000
ENDCHAR
STARTCHAR unrounded central close-mid/open-mid
ENCODING 167
SWIDTH 500 0
DWIDTH 12 0
BBX 12 24 0 -2
BITMAP
0000
0000
0000
0000
0000
0000
0000
0000
0000
1f80
3fc0
3060
0060
3fe0
3fe0
3060
30e0
1fc0
0f80
0000
0000
0000
0000
0000
ENDCHAR
STARTCHAR unrounded central open-mid/open
ENCODING 168
SWIDTH 500 0
DWIDTH 12 0
BBX 12 24 0 -2
BITMAP
0000
0000
0000
0000
0000
0000
0000
0000
0000
37c0
3fe0
3860
3060
3fc0
3f80
3000
3060
1fc0
0f80
0000
0000
0000
0000
0000
ENDCHAR
STARTCHAR unrounded back close
ENCODING 169
SWIDTH 500 0
DWIDTH 12 0
BBX 12 24 0 -2
BITMAP
0000
0000
0000
0000
0000
0000
0000
0000
0000
6660
6660
6660
6660
6660
6660
6660
6660
7fe0
3b60
0000
0000
0000
0000
0000
ENDCHAR
STARTCHAR unrouned back close-mid
ENCODING 170
SWIDTH 500 0
DWIDTH 12 0
BBX 12 24 0 -2
BITMAP
0000
0000
0000
0000
0000
0000
0000
0000
0000
3060
38e0
0d80
0700
0f80
18c0
18c0
18c0
18c0
0f80
0700
0000
0000
0000
0000
ENDCHAR
STARTCHAR unrounded back open-mid
ENCODING 171
SWIDTH 500 0
DWIDTH 12 0
BBX 12 24 0 -2
BITMAP
0000
0000
0000
0000
0000
0000
0000
0000
0000
0700
0700
0d80
0d80
18c0
18c0
18c0
3060
3060
3060
0000
0000
0000
0000
0000
ENDCHAR
STARTCHAR unrounded back open
ENCODING 172
SWIDTH 500 0
DWIDTH 12 0
BBX 12 24 0 -2
BITMAP
0000
0000
0000
0000
0000
0000
0000
0000
0000
0f60
1fe0
30e0
3060
3060
3060
30e0
31e0
1f60
0e60
0000
0000
0000
0000
0000
ENDCHAR
STARTCHAR rounded front close
ENCODING 173
SWIDTH 500 0
DWIDTH 12 0
BBX 12 24 0 -2
BITMAP
0000
0000
0000
0000
0000
0000
0000
0000
0000
3060
3060
3060
38e0
18c0
1dc0
0d80
0f80
0700
0700
0600
0e00
0c00
1c00
1800
ENDCHAR
STARTCHAR rounded front/central close/close-mid
ENCODING 174
SWIDTH 500 0
DWIDTH 12 0
BBX 12 24 0 -2
BITMAP
0000
0000
0000
0000
0000
0000
0000
0000
0000
6060
70e0
39c0
1f80
0f00
0600
0600
0600
0600
0600
0000
0000
0000
0000
0000
ENDCHAR
STARTCHAR rounded front close-mid
ENCODING 175
SWIDTH 500 0
DWIDTH 12 0
BBX 12 24 0 -2
BITMAP
0000
0000
0000
0000
0000
0000
0000
0000
0000
0f60
1fe0
39c0
33e0
3360
3760
3e60
1ce0
3fc0
3780
0000
0000
0000
0000
0000
ENDCHAR
STARTCHAR rounded front open-mid
ENCODING 176
SWIDTH 500 0
DWIDTH 12 0
BBX 12 24 0 -2
BITMAP
0000
0000
0000
0000
0000
0000
0000
0000
0000
39c0
7fe0
6660
6660
67e0
67c0
6600
6660
7fe0
39c0
0000
0000
0000
0000
0000
ENDCHAR
STARTCHAR rounded front open
ENCODING 177
SWIDTH 500 0
DWIDTH 12 0
BBX 12 24 0 -2
BITMAP
0000
0000
0000
0000
0000
0000
0000
0000
0000
3fe0
7fe0
6600
6600
67c0
67c0
6600
6600
7fe0
3fe0
0000
0000
0000
0000
0000
ENDCHAR
STARTCHAR rounded central close
ENCODING 178
SWIDTH 500 0
DWIDTH 12 0
BBX 12 24 0 -2
BITMAP
0000
0000
0000
0000
0000
0000
0000
0000
0000
30c0
30c0
30c0
7fe0
7fe0
30c0
30c0
39c0
1fc0
0ec0
0000
0000
0000
0000
0000
ENDCHAR
STARTCHAR rounded central close-mid/open-mid
ENCODING 179
SWIDTH 500 0
DWIDTH 12 0
BBX 12 24 0 -2
BITMAP
0000
0000
0000
0000
0000
0000
0000
0000
0000
0f80
1fc0
38e0
3060
3fe0
3fe0
3060
38e0
1fc0
0f80
0000
0000
0000
0000
0000
ENDCHAR
STARTCHAR rounded back close
ENCODING 180
SWIDTH 500 0
DWIDTH 12 0
BBX 12 24 0 -2
BITMAP
0000
0000
0000
0000
0000
0000
0000
0000
0000
3060
3060
3060
3060
3060
3060
30e0
39e0
1f60
0e60
0000
0000
0000
0000
0000
ENDCHAR
STARTCHAR rounded central/back close/close-mid
ENCODING 181
SWIDTH 500 0
DWIDTH 12 0
BBX 12 24 0 -2
BITMAP
0000
0000
0000
0000
0000
0000
0000
0000
0000
3de0
3de0
0d80
0d80
18c0
3060
3060
38e0
1fc0
0f80
0000
0000
0000
0000
0000
ENDCHAR
STARTCHAR rounded back close-mid
ENCODING 182
SWIDTH 500 0
DWIDTH 12 0
BBX 12 24 0 -2
BITMAP
0000
0000
0000
0000
0000
0000
0000
0000
0000
0f80
1fc0
38e0
3060
3060
3060
3060
38e0
1fc0
0f80
0000
0000
0000
0000
0000
ENDCHAR
STARTCHAR rounded back open-mid
ENCODING 183
SWIDTH 500 0
DWIDTH 12 0
BBX 12 24 0 -2
BITMAP
0000
0000
0000
0000
0000
0000
0000
0000
0000
1f80
3fc0
30e0
0060
0060
0060
3060
30e0
1fc0
1f80
0000
0000
0000
0000
0000
ENDCHAR
STARTCHAR rounded back open
ENCODING 184
SWIDTH 500 0
DWIDTH 12 0
BBX 12 24 0 -2
BITMAP
0000
0000
0000
0000
0000
0000
0000
0000
0000
3380
37c0
3ce0
3860
3060
3060
3060
38e0
3fc0
3780
0000
0000
0000
0000
0000
ENDCHAR
STARTCHAR This position shall not be used
ENCODING 185
SWIDTH 500 0
DWIDTH 12 0
BBX 12 24 0 -2
BITMAP
0000
0000
0000
0000
0000
0000
0000
0000
0000
0000
0000
0000
0000
0000
0000
0000
0000
0000
0000
0000
0000
0000
0000
0000
ENDCHAR
STARTCHAR rhoticity unrounded central close-mid/open-mid
ENCODING 186
SWIDTH 500 0
DWIDTH 12 0
BBX 12 24 0 -2
BITMAP
0000
0000
0000
0000
0000
0000
0000
0000
0000
3c00
7e60
6360
0360
7fe0
7fe0
6360
6760
3e60
1c00
0000
0000
0000
0000
0000
ENDCHAR
STARTCHAR nasalized front open-mid unrounded
ENCODING 187
SWIDTH 500 0
DWIDTH 12 0
BBX 12 24 0 -2
BITMAP
0000
0000
0000
0000
1c20
3660
23c0
0000
0000
0f80
1fc0
3060
3000
1f00
1f00
3000
3060
1fc0
0f80
0000
0000
0000
0000
0000
ENDCHAR
STARTCHAR nasalazed back open unrounded
ENCODING 188
SWIDTH 500 0
DWIDTH 12 0
BBX 12 24 0 -2
BITMAP
0000
0000
0000
0000
1c20
3660
23c0
0000
0000
0f60
1fe0
30e0
3060
3060
3060
30e0
31e0
1f60
0e60
0000
0000
0000
0000
0000
ENDCHAR
STARTCHAR nasalazed front open-mid rounded
ENCODING 189
SWIDTH 500 0
DWIDTH 12 0
BBX 12 24 0 -2
BITMAP
0000
0000
0000
0000
1c20
3660
23c0
0000
0000
39c0
7fe0
6660
6660
67e0
67c0
6600
6660
7fe0
39c0
0000
0000
0000
0000
0000
ENDCHAR
STARTCHAR nasalazed back open-mid rounded
ENCODING 190
SWIDTH 500 0
DWIDTH 12 0
BBX 12 24 0 -2
BITMAP
0000
0000
0000
0000
1c20
3660
23c0
0000
0000
1f80
3fc0
30e0
0060
0060
0060
3060
30e0
1fc0
1f80
0000
0000
0000
0000
0000
ENDCHAR
STARTCHAR This position shall not be used
ENCODING 191
SWIDTH 500 0
DWIDTH 12 0
BBX 12 24 0 -2
BITMAP
0000
0000
0000
0000
0000
0000
0000
0000
0000
0000
0000
0000
0000
0000
0000
0000
0000
0000
0000
0000
0000
0000
0000
0000
ENDCHAR
STARTCHAR voiceless bilabial plosive
ENCODING 192
SWIDTH 500 0
DWIDTH 12 0
BBX 12 24 0 -2
BITMAP
0000
0000
0000
0000
0000
0000
0000
0000
0000
3380
37c0
3ce0
3860
3060
3060
3860
3ce0
37c0
3380
3000
3000
3000
3000
0000
ENDCHAR
STARTCHAR voiced bilabial plosive
ENCODING 193
SWIDTH 500 0
DWIDTH 12 0
BBX 12 24 0 -2
BITMAP
0000
0000
0000
0000
0000
3000
3000
3000
3000
3380
37c0
3ce0
3860
3060
3060
3860
3ce0
37c0
3380
0000
0000
0000
0000
0000
ENDCHAR
STARTCHAR voiceless dental/alveolar/postalveolar plosive
ENCODING 194
SWIDTH 500 0
DWIDTH 12 0
BBX 12 24 0 -2
BITMAP
0000
0000
0000
0000
0000
0000
0600
0600
0600
1f80
1f80
0600
0600
0600
0600
0600
0600
0780
0380
0000
0000
0000
0000
0000
ENDCHAR
STARTCHAR voiced dental/alveolar/postalveolar plosive
ENCODING 195
SWIDTH 500 0
DWIDTH 12 0
BBX 12 24 0 -2
BITMAP
0000
0000
0000
0000
0000
0060
0060
0060
0060
0f60
1fe0
38e0
3060
3060
3060
30e0
39e0
1f60
0e60
0000
0000
0000
0000
0000
ENDCHAR
STARTCHAR voiceless velar plosive
ENCODING 196
SWIDTH 500 0
DWIDTH 12 0
BBX 12 24 0 -2
BITMAP
0000
0000
0000
0000
0000
0000
3000
3000
30c0
31c0
3380
3700
3e00
3c00
3e00
3700
3380
31c0
30c0
0000
0000
0000
0000
0000
ENDCHAR
STARTCHAR voiced velar plosive
ENCODING 197
SWIDTH 500 0
DWIDTH 12 0
BBX 12 24 0 -2
BITMAP
0000
0000
0000
0000
0000
0000
0000
0000
0000
0e60
1f60
39e0
30e0
3060
3060
3060
38e0
1fe0
0f60
0060
0060
0060
1fc0
0f80
ENDCHAR
STARTCHAR voiceless labiodental fricative
ENCODING 198
SWIDTH 500 0
DWIDTH 12 0
BBX 12 24 0 -2
BITMAP
0000
0000
0000
0000
0000
0380
0780
0600
0600
0600
1f80
1f80
0600
0600
0600
0600
0600
0600
0600
0000
0000
0000
0000
0000
ENDCHAR
STARTCHAR voiced labiodental fricative
ENCODING 199
SWIDTH 500 0
DWIDTH 12 0
BBX 12 24 0 -2
BITMAP
0000
0000
0000
0000
0000
0000
0000
0000
0000
6060
6060
30c0
30c0
1980
1980
0f00
0f00
0600
0600
0000
0000
0000
0000
0000
ENDCHAR
STARTCHAR voiceless dental fricative
ENCODING 200
SWIDTH 500 0
DWIDTH 12 0
BBX 12 24 0 -2
BITMAP
0000
0000
0000
0000
0000
0f00
1f80
1980
30c0
30c0
30c0
3fc0
3fc0
30c0
30c0
30c0
19c0
1f80
0f00
0000
0000
0000
0000
0000
ENDCHAR
STARTCHAR voiced dental fricative
ENCODING 201
SWIDTH 500 0
DWIDTH 12 0
BBX 12 24 0 -2
BITMAP
0000
0000
0000
0000
0000
1ce0
1fe0
0380
0fc0
3ce0
3060
0fe0
1fe0
3860
3060
3060
38e0
1fc0
0f80
0000
0000
0000
0000
0000
ENDCHAR
STARTCHAR voiceless alveolar fricative
ENCODING 202
SWIDTH 500 0
DWIDTH 12 0
BBX 12 24 0 -2
BITMAP
0000
0000
0000
0000
0000
0000
0000
0000
0000
1fc0
3fe0
3020
3000
1f80
0fc0
0060
3060
3fe0
1fc0
0000
0000
0000
0000
0000
ENDCHAR
STARTCHAR voiced alveolar fricative
ENCODING 203
SWIDTH 500 0
DWIDTH 12 0
BBX 12 24 0 -2
BITMAP
0000
0000
0000
0000
0000
0000
0000
0000
0000
3fe0
3fe0
00c0
0180
0300
0600
0c00
1800
3fe0
3fe0
0000
0000
0000
0000
0000
ENDCHAR
STARTCHAR voiceless postalveolar fricative
ENCODING 204
SWIDTH 500 0
DWIDTH 12 0
BBX 12 24 0 -2
BITMAP
0000
0000
0000
0000
0000
01c0
03c0
0700
0600
0600
0600
0600
0600
0600
0600
0600
0600
0600
0600
0600
0e00
3c00
3800
0000
ENDCHAR
STARTCHAR voiced postalveolar fricative
ENCODING 205
SWIDTH 500 0
DWIDTH 12 0
BBX 12 24 0 -2
BITMAP
0000
0000
0000
0000
0000
0000
0000
0000
0000
3fc0
3fc0
0180
0300
0600
1f80
1fc0
00e0
0060
0060
0060
00e0
1fc0
0f80
0000
ENDCHAR
STARTCHAR voiceless palatal fricative
ENCODING 206
SWIDTH 500 0
DWIDTH 12 0
BBX 12 24 0 -2
BITMAP
0000
0000
0000
0000
0000
0000
0000
0000
0000
07c0
1fc0
3860
3060
3000
3000
3000
3860
1fe0
0fc0
0600
0700
0180
0f80
0f00
ENDCHAR
STARTCHAR voiceless velar fricative
ENCODING 207
SWIDTH 500 0
DWIDTH 12 0
BBX 12 24 0 -2
BITMAP
0000
0000
0000
0000
0000
0000
0000
0000
0000
3060
3060
18c0
0d80
0700
0700
0d80
18c0
3060
3060
0000
0000
0000
0000
0000
ENDCHAR
STARTCHAR voiced uvular fricative
ENCODING 208
SWIDTH 500 0
DWIDTH 12 0
BBX 12 24 0 -2
BITMAP
0000
0000
0000
0000
0000
0000
0000
0000
0000
3060
30e0
31c0
3180
3fc0
3fe0
3060
3060
3fe0
3fc0
0000
0000
0000
0000
0000
ENDCHAR
STARTCHAR voiceless pharyngeal fricative
ENCODING 209
SWIDTH 500 0
DWIDTH 12 0
BBX 12 24 0 -2
BITMAP
0000
0000
0000
0000
0000
3000
3000
3000
3000
3380
37c0
3ce0
3860
3060
3060
3060
3060
3060
3060
0000
0000
0000
0000
0000
ENDCHAR
STARTCHAR voiced bilabial nasal
ENCODING 210
SWIDTH 500 0
DWIDTH 12 0
BBX 12 24 0 -2
BITMAP
0000
0000
0000
0000
0000
0000
0000
0000
6000
6dc0
7fe0
6660
6660
6660
6660
6660
6660
6660
6660
0000
0000
0000
0000
0000
ENDCHAR
STARTCHAR voiced dental/alveolar/postalveolar nasal
ENCODING 211
SWIDTH 500 0
DWIDTH 12 0
BBX 12 24 0 -2
BITMAP
0000
0000
0000
0000
0000
0000
0000
0000
0000
3380
37c0
3c60
3860
3060
3060
3060
3060
3060
3060
0000
0000
0000
0000
0000
ENDCHAR
STARTCHAR voiced palatal nasal
ENCODING 212
SWIDTH 500 0
DWIDTH 12 0
BBX 12 24 0 -2
BITMAP
0000
0000
0000
0000
0000
0000
0000
0000
0000
1980
1bc0
1ee0
1c60
1860
1860
1860
1860
1860
1860
1800
1800
7800
7000
0000
ENDCHAR
STARTCHAR voiced velar nasal
ENCODING 213
SWIDTH 500 0
DWIDTH 12 0
BBX 12 24 0 -2
BITMAP
0000
0000
0000
0000
0000
0000
0000
0000
0000
3380
37c0
3c60
3860
3060
3060
3060
3060
3060
3060
0060
00e0
1fc0
0f80
0000
ENDCHAR
STARTCHAR voiced dental/alveolar/postalveolar trill
ENCODING 214
SWIDTH 500 0
DWIDTH 12 0
BBX 12 24 0 -2
BITMAP
0000
0000
0000
0000
0000
0000
0000
0000
0000
3380
37c0
3c60
3860
3000
3000
3000
3000
3000
3000
0000
0000
0000
0000
0000
ENDCHAR
STARTCHAR voiced uvular trill
ENCODING 215
SWIDTH 500 0
DWIDTH 12 0
BBX 12 24 0 -2
BITMAP
0000
0000
0000
0000
0000
0000
0000
0000
0000
3fc0
3fe0
3060
3060
3fe0
3fc0
3180
31c0
30e0
3060
0000
0000
0000
0000
0000
ENDCHAR
STARTCHAR voiced dental/alveolar/postalveolar approximant
ENCODING 216
SWIDTH 500 0
DWIDTH 12 0
BBX 12 24 0 -2
BITMAP
0000
0000
0000
0000
0000
0000
0000
0000
0000
0060
0060
0060
0060
0060
0060
30e0
31e0
1f60
0e60
0000
0000
0000
0000
0000
ENDCHAR
STARTCHAR voiced palatal approximant
ENCODING 217
SWIDTH 500 0
DWIDTH 12 0
BBX 12 24 0 -2
BITMAP
0000
0000
0000
0000
0000
0600
0600
0000
0000
0600
0600
0600
0600
0600
0600
0600
0600
0600
0600
0600
0600
3e00
3800
0000
ENDCHAR
STARTCHAR voiced dental/alveolar/postalveolar lateral approximant
ENCODING 218
SWIDTH 500 0
DWIDTH 12 0
BBX 12 24 0 -2
BITMAP
0000
0000
0000
0000
0000
0600
0600
0600
0600
0600
0600
0600
0600
0600
0600
0600
0600
0780
0380
0000
0000
0000
0000
0000
ENDCHAR
STARTCHAR voiced palatal lateral approximant
ENCODING 219
SWIDTH 500 0
DWIDTH 12 0
BBX 12 24 0 -2
BITMAP
0000
0000
0000
0000
0000
00c0
01c0
0180
0380
0300
0700
0700
0f80
0d80
1dc0
18c0
38e0
3060
3060
0000
0000
0000
0000
0000
ENDCHAR
STARTCHAR voiced velar lateral approximant
ENCODING 220
SWIDTH 500 0
DWIDTH 12 0
BBX 12 24 0 -2
BITMAP
0000
0000
0000
0000
0000
0000
0000
0000
0000
3000
3000
3000
3000
3000
3000
3000
3000
3fe0
3fe0
0000
0000
0000
0000
0000
ENDCHAR
STARTCHAR voiced labial-palatal approximant
ENCODING 221
SWIDTH 500 0
DWIDTH 12 0
BBX 12 24 0 -2
BITMAP
0000
0000
0000
0000
0000
0000
0000
0000
0000
3060
3060
3060
3060
3060
3060
30e0
39e0
1f60
0e60
0060
0060
0060
0060
0060
ENDCHAR
STARTCHAR voiced labial-velar approximant
ENCODING 222
SWIDTH 500 0
DWIDTH 12 0
BBX 12 24 0 -2
BITMAP
0000
0000
0000
0000
0000
0000
0000
0000
0000
6060
6060
6660
6660
6660
6660
6660
76e0
3fc0
1980
0000
0000
0000
0000
0000
ENDCHAR
STARTCHAR voceless labial-velar fricative
ENCODING 223
SWIDTH 500 0
DWIDTH 12 0
BBX 12 24 0 -2
BITMAP
0000
0000
0000
0000
0000
0000
0000
0000
0000
18c0
18c0
18c0
1dc0
3760
3760
3760
3260
3060
3060
0000
0000
0000
0000
0000
ENDCHAR
STARTCHAR This position shall not be used
ENCODING 224
SWIDTH 500 0
DWIDTH 12 0
BBX 12 24 0 -2
BITMAP
0000
0000
0000
0000
0000
0000
0000
0000
0000
0000
0000
0000
0000
0000
0000
0000
0000
0000
0000
0000
0000
0000
0000
0000
ENDCHAR
STARTCHAR This position shall not be used
ENCODING 225
SWIDTH 500 0
DWIDTH 12 0
BBX 12 24 0 -2
BITMAP
0000
0000
0000
0000
0000
0000
0000
0000
0000
0000
0000
0000
0000
0000
0000
0000
0000
0000
0000
0000
0000
0000
0000
0000
ENDCHAR
STARTCHAR This position shall not be used
ENCODING 226
SWIDTH 500 0
DWIDTH 12 0
BBX 12 24 0 -2
BITMAP
0000
0000
0000
0000
0000
0000
0000
0000
0000
0000
0000
0000
0000
0000
0000
0000
0000
0000
0000
0000
0000
0000
0000
0000
ENDCHAR
STARTCHAR This position shall not be used
ENCODING 227
SWIDTH 500 0
DWIDTH 12 0
BBX 12 24 0 -2
BITMAP
0000
0000
0000
0000
0000
0000
0000
0000
0000
0000
0000
0000
0000
0000
0000
0000
0000
0000
0000
0000
0000
0000
0000
0000
ENDCHAR
STARTCHAR This position shall not be used
ENCODING 228
SWIDTH 500 0
DWIDTH 12 0
BBX 12 24 0 -2
BITMAP
0000
0000
0000
0000
0000
0000
0000
0000
0000
0000
0000
0000
0000
0000
0000
0000
0000
0000
0000
0000
0000
0000
0000
0000
ENDCHAR
STARTCHAR This position shall not be used
ENCODING 229
SWIDTH 500 0
DWIDTH 12 0
BBX 12 24 0 -2
BITMAP
0000
0000
0000
0000
0000
0000
0000
0000
0000
0000
0000
0000
0000
0000
0000
0000
0000
0000
0000
0000
0000
0000
0000
0000
ENDCHAR
STARTCHAR This position shall not be used
ENCODING 230
SWIDTH 500 0
DWIDTH 12 0
BBX 12 24 0 -2
BITMAP
0000
0000
0000
0000
0000
0000
0000
0000
0000
0000
0000
0000
0000
0000
0000
0000
0000
0000
0000
0000
0000
0000
0000
0000
ENDCHAR
STARTCHAR This position shall not be used
ENCODING 231
SWIDTH 500 0
DWIDTH 12 0
BBX 12 24 0 -2
BITMAP
0000
0000
0000
0000
0000
0000
0000
0000
0000
0000
0000
0000
0000
0000
0000
0000
0000
0000
0000
0000
0000
0000
0000
0000
ENDCHAR
STARTCHAR This position shall not be used
ENCODING 232
SWIDTH 500 0
DWIDTH 12 0
BBX 12 24 0 -2
BITMAP
0000
0000
0000
0000
0000
0000
0000
0000
0000
0000
0000
0000
0000
0000
0000
0000
0000
0000
0000
0000
0000
0000
0000
0000
ENDCHAR
STARTCHAR This position shall not be used
ENCODING 233
SWIDTH 500 0
DWIDTH 12 0
BBX 12 24 0 -2
BITMAP
0000
0000
0000
0000
0000
0000
0000
0000
0000
0000
0000
0000
0000
0000
0000
0000
0000
0000
0000
0000
0000
0000
0000
0000
ENDCHAR
STARTCHAR This position shall not be used
ENCODING 234
SWIDTH 500 0
DWIDTH 12 0
BBX 12 24 0 -2
BITMAP
0000
0000
0000
0000
0000
0000
0000
0000
0000
0000
0000
0000
0000
0000
0000
0000
0000
0000
0000
0000
0000
0000
0000
0000
ENDCHAR
STARTCHAR This position shall not be used
ENCODING 235
SWIDTH 500 0
DWIDTH 12 0
BBX 12 24 0 -2
BITMAP
0000
0000
0000
0000
0000
0000
0000
0000
0000
0000
0000
0000
0000
0000
0000
0000
0000
0000
0000
0000
0000
0000
0000
0000
ENDCHAR
STARTCHAR This position shall not be used
ENCODING 236
SWIDTH 500 0
DWIDTH 12 0
BBX 12 24 0 -2
BITMAP
0000
0000
0000
0000
0000
0000
0000
0000
0000
0000
0000
0000
0000
0000
0000
0000
0000
0000
0000
0000
0000
0000
0000
0000
ENDCHAR
STARTCHAR This position shall not be usedxe
ENCODING 237
SWIDTH 500 0
DWIDTH 12 0
BBX 12 24 0 -2
BITMAP
0000
0000
0000
0000
0000
0000
0000
0000
0000
0000
0000
0000
0000
0000
0000
0000
0000
0000
0000
0000
0000
0000
0000
0000
ENDCHAR
STARTCHAR This position shall not be used
ENCODING 238
SWIDTH 500 0
DWIDTH 12 0
BBX 12 24 0 -2
BITMAP
0000
0000
0000
0000
0000
0000
0000
0000
0000
0000
0000
0000
0000
0000
0000
0000
0000
0000
0000
0000
0000
0000
0000
0000
ENDCHAR
STARTCHAR This position shall not be used
ENCODING 239
SWIDTH 500 0
DWIDTH 12 0
BBX 12 24 0 -2
BITMAP
0000
0000
0000
0000
0000
0000
0000
0000
0000
0000
0000
0000
0000
0000
0000
0000
0000
0000
0000
0000
0000
0000
0000
0000
ENDCHAR
STARTCHAR primary stress
ENCODING 240
SWIDTH 500 0
DWIDTH 12 0
BBX 12 24 0 -2
BITMAP
0000
0000
0000
0000
0000
0600
0600
0600
0600
0000
0000
0000
0000
0000
0000
0000
0000
0000
0000
0000
0000
0000
0000
0000
ENDCHAR
STARTCHAR secondary stress
ENCODING 241
SWIDTH 500 0
DWIDTH 12 0
BBX 12 24 0 -2
BITMAP
0000
0000
0000
0000
0000
0000
0000
0000
0000
0000
0000
0000
0000
0000
0000
0000
0000
0000
0600
0600
0600
0600
0000
0000
ENDCHAR
STARTCHAR long
ENCODING 242
SWIDTH 500 0
DWIDTH 12 0
BBX 12 24 0 -2
BITMAP
0000
0000
0000
0000
0000
0000
0000
0000
0f00
0f00
0600
0600
0000
0000
0000
0600
0600
0f00
0f00
0000
0000
0000
0000
0000
ENDCHAR
STARTCHAR This position shall not be used
ENCODING 243
SWIDTH 500 0
DWIDTH 12 0
BBX 12 24 0 -2
BITMAP
0000
0000
0000
0000
0000
0000
0000
0000
0000
0000
0000
0000
0000
0000
0000
0000
0000
0000
0000
0000
0000
0000
0000
0000
ENDCHAR
STARTCHAR This position shall not be used
ENCODING 244
SWIDTH 500 0
DWIDTH 12 0
BBX 12 24 0 -2
BITMAP
0000
0000
0000
0000
0000
0000
0000
0000
0000
0000
0000
0000
0000
0000
0000
0000
0000
0000
0000
0000
0000
0000
0000
0000
ENDCHAR
STARTCHAR This position shall not be used
ENCODING 245
SWIDTH 500 0
DWIDTH 12 0
BBX 12 24 0 -2
BITMAP
0000
0000
0000
0000
0000
0000
0000
0000
0000
0000
0000
0000
0000
0000
0000
0000
0000
0000
0000
0000
0000
0000
0000
0000
ENDCHAR
STARTCHAR This position shall not be used
ENCODING 246
SWIDTH 500 0
DWIDTH 12 0
BBX 12 24 0 -2
BITMAP
0000
0000
0000
0000
0000
0000
0000
0000
0000
0000
0000
0000
0000
0000
0000
0000
0000
0000
0000
0000
0000
0000
0000
0000
ENDCHAR
STARTCHAR This position shall not be used
ENCODING 247
SWIDTH 500 0
DWIDTH 12 0
BBX 12 24 0 -2
BITMAP
0000
0000
0000
0000
0000
0000
0000
0000
0000
0000
0000
0000
0000
0000
0000
0000
0000
0000
0000
0000
0000
0000
0000
0000
ENDCHAR
STARTCHAR This position shall not be used
ENCODING 248
SWIDTH 500 0
DWIDTH 12 0
BBX 12 24 0 -2
BITMAP
0000
0000
0000
0000
0000
0000
0000
0000
0000
0000
0000
0000
0000
0000
0000
0000
0000
0000
0000
0000
0000
0000
0000
0000
ENDCHAR
STARTCHAR This position shall not be used
ENCODING 249
SWIDTH 500 0
DWIDTH 12 0
BBX 12 24 0 -2
BITMAP
0000
0000
0000
0000
0000
0000
0000
0000
0000
0000
0000
0000
0000
0000
0000
0000
0000
0000
0000
0000
0000
0000
0000
0000
ENDCHAR
STARTCHAR This position shall not be used
ENCODING 250
SWIDTH 500 0
DWIDTH 12 0
BBX 12 24 0 -2
BITMAP
0000
0000
0000
0000
0000
0000
0000
0000
0000
0000
0000
0000
0000
0000
0000
0000
0000
0000
0000
0000
0000
0000
0000
0000
ENDCHAR
STARTCHAR This position shall not be used
ENCODING 251
SWIDTH 500 0
DWIDTH 12 0
BBX 12 24 0 -2
BITMAP
0000
0000
0000
0000
0000
0000
0000
0000
0000
0000
0000
0000
0000
0000
0000
0000
0000
0000
0000
0000
0000
0000
0000
0000
ENDCHAR
STARTCHAR This position shall not be used
ENCODING 252
SWIDTH 500 0
DWIDTH 12 0
BBX 12 24 0 -2
BITMAP
0000
0000
0000
0000
0000
0000
0000
0000
0000
0000
0000
0000
0000
0000
0000
0000
0000
0000
0000
0000
0000
0000
0000
0000
ENDCHAR
STARTCHAR This position shall not be used
ENCODING 253
SWIDTH 500 0
DWIDTH 12 0
BBX 12 24 0 -2
BITMAP
0000
0000
0000
0000
0000
0000
0000
0000
0000
0000
0000
0000
0000
0000
0000
0000
0000
0000
0000
0000
0000
0000
0000
0000
ENDCHAR
STARTCHAR This position shall not be used
ENCODING 254
SWIDTH 500 0
DWIDTH 12 0
BBX 12 24 0 -2
BITMAP
0000
0000
0000
0000
0000
0000
0000
0000
0000
0000
0000
0000
0000
0000
0000
0000
0000
0000
0000
0000
0000
0000
0000
0000
ENDCHAR
STARTCHAR whitespace
ENCODING 255
SWIDTH 500 0
DWIDTH 12 0
BBX 12 24 0 -2
BITMAP
0000
0000
0000
0000
0000
0000
0000
0000
0000
0000
0000
0000
0000
0000
0000
0000
0000
0000
0000
0000
0000
0000
0000
0000
ENDCHAR
ENDFONT
